<svg width="234" height="100" viewBox="0 0 234 100" fill="none" xmlns="http://www.w3.org/2000/svg">
<path d="M210.54 41.0558C211.316 40.2442 214.247 37.5796 214.411 38.8082C215.239 45.0183 207.633 50.4196 206.75 57.4785C206.709 58.6813 206.938 60.2458 207.506 60.7282C209.229 58.3293 211.798 53.9751 214.195 51.2684C217.887 47.3327 220.708 43.8336 225.575 42.079C227.444 41.4031 229.784 42.3661 230.891 43.6129C233.644 47.2161 233.482 51.8636 232.18 56.525C230.056 64.8039 222.679 71.56 214.776 72.2655C212.594 72.4557 210.735 71.8375 210.735 71.8375C207.777 80.5087 204.739 89.9474 202.804 99.3633C202.374 101.413 197.942 98.0797 196.785 95.5226C195.662 92.805 195.868 89.0494 196.689 85.2952C198.154 78.6947 202.722 69.3014 203.709 67.3148L203.771 67.1922C203.854 67.0255 203.899 66.9368 203.899 66.9368C203.899 66.9368 203.874 66.8958 203.83 66.8185L203.78 66.7293C203.407 66.0567 202.263 63.8476 201.989 61.5499C201.018 53.5547 205.507 46.5799 210.54 41.0558ZM75.6737 19.26C85.6303 26.949 92.3987 36.2936 94.2546 43.6521C96.0894 50.9446 94.6382 60.5706 85.3403 67.6123C73.7347 75.6887 57.6564 76.2892 43.915 72.5407C43.8123 73.5381 43.7292 77.0974 41.8624 77.6415C40.2 78.1374 38.979 77.8035 37.5688 77.1366C36.2591 76.5159 35.9343 74.115 35.713 71.8L35.6779 71.4256C35.6147 70.7417 35.5564 70.0743 35.4799 69.4725C26.3865 65.3046 15.5222 56.2513 13.4309 50.7239C12.8548 49.1991 13.2011 46.6252 14.6065 45.3144C17.4856 42.6365 21.3167 41.1647 24.5091 40.0111C30.1947 37.9603 34.3616 37.454 36.591 37.0656C36.8599 33.6787 37.2574 26.0237 39.4806 20.7475C40.1021 19.2724 43.4211 22.4309 43.7383 26.8291C43.805 27.7423 43.8819 29.2437 43.9538 30.8124L43.9724 31.2228L43.9908 31.6342L43.9985 31.8084L44.0136 32.1556C44.121 34.636 44.205 36.9132 44.205 36.9132C49.2667 36.6849 65.3234 38.0573 71.1246 43.6521C72.657 45.1248 73.5594 48.0368 72.8414 50.1377C72.048 52.4593 70.0908 54.5784 67.9713 55.5467C66.3844 56.2723 62.7014 54.7666 62.2103 53.9024C61.831 53.2709 63.566 52.2444 65.3478 51.3301C66.2291 50.8782 66.8306 49.8096 66.5009 49.2186C64.5892 45.8117 52.4801 44.2855 44.0736 44.168C44.119 52.0633 43.5945 58.8643 43.8577 66.2986C55.6874 68.871 71.0233 68.0867 80.6842 60.6251C85.9121 56.7772 87.1575 48.5991 85.2901 42.6475C79.157 26.477 62.023 18.0118 47.3941 11.7893C34.0263 6.36506 22.3538 3.95461 6.88169 6.31825C6.04763 6.6856 4.90355 6.70853 4.50706 7.44561C4.95845 7.80055 5.5695 7.90826 6.21418 8.01915L6.51366 8.07147C7.36636 8.22553 8.24345 8.45092 8.86317 9.30767C9.23386 10.5382 7.67657 10.6452 6.88169 10.8449C3.80294 11.4463 -0.156678 10.5893 0.00478274 8.3088C0.148569 6.39086 2.90678 2.68203 4.48031 2.27838C28.5414 -4.77241 57.9273 5.56588 75.6737 19.26ZM178.609 40.3707C186.187 39.5486 191.383 38.8206 198.044 39.144C199.467 39.2104 203.376 43.652 202.353 45.2905C201.641 46.4451 196.082 46.2913 193.863 46.2048C193.321 46.1837 192.656 46.1922 191.965 46.2168L191.644 46.2293C189.659 46.3127 187.573 46.5101 187.573 46.5101L185.596 51.7198C188.835 51.6114 194.04 51.1002 195.446 52.0026C196.041 52.3733 196.09 55.0345 195.803 55.6618C195.325 56.7239 193.473 56.8212 191.662 56.7783L191.334 56.7691C190.625 56.7467 189.935 56.7103 189.352 56.7103C187.084 56.7146 183.363 56.8913 183.357 56.8918C183.247 57.1259 180.617 62.6041 181.225 63.8308C181.499 64.3787 184.332 63.8951 187.432 63.3343L187.876 63.2537C190.847 62.7147 193.96 62.1469 195.234 62.3748C196.977 62.6848 198.169 65.5658 197.09 66.5179C192.081 70.9404 183.934 74.5718 179.429 73.2013C175.231 71.9239 173.391 67.6438 174.222 64.2311C174.402 63.4915 174.651 62.5876 174.917 61.6663L175.017 61.3203C175.691 59.0121 176.431 56.7103 176.431 56.7103C176.312 56.653 175.648 56.2512 175.367 53.1648C175.267 51.9816 178.627 51.77 178.609 51.7819L180.973 46.3032C179.33 45.9407 175.767 44.4321 175.14 41.6137C175.145 41.1752 177.602 40.4801 178.609 40.3707ZM102.093 37.6461C103.271 37.6657 105.044 40.4497 105.289 42.3978C105.58 44.6919 105.799 47.5681 105.946 50.5847L105.978 51.2572L106.007 51.9333C106.109 54.4173 106.164 56.951 106.168 59.2956L106.169 59.9302C106.16 64.6516 105.945 68.4908 105.517 69.4029C104.789 70.8799 102.511 70.9133 101.005 70.4309C98.9873 69.9062 98.5866 68.1305 98.4767 66.2026L98.4625 65.9195C98.4604 65.8722 98.4585 65.8248 98.4567 65.7774L98.4464 65.4716L98.4381 65.1655C98.4191 64.401 98.4085 63.643 98.3261 62.9583L98.3529 61.4301C98.4854 54.0367 98.6848 46.5559 100.09 39.5908C100.382 38.1659 100.871 37.6232 102.093 37.6461ZM161.636 33.4642C163.54 33.2053 165.251 35.6286 166.43 37.0751C170.544 42.1468 172.634 52.1067 171.628 59.8177C171.304 62.2874 169.964 67.5287 167.683 68.4917C166.546 68.9618 163.832 69.2622 162.91 68.6049C161.2 67.3817 159.275 64.1173 157.499 60.7517L157.246 60.2704C157.204 60.1901 157.162 60.1098 157.121 60.0296L156.871 59.5486C154.681 55.3057 152.795 51.2691 151.942 51.3367C151.527 51.3615 151.211 51.9319 151.062 53.1543C150.897 54.5526 150.737 56.7534 150.599 59.0379L150.573 59.4809L150.534 60.1469C150.306 64.1409 150.151 68.0374 150.151 68.0374C149.843 70.5682 147.955 70.3222 147.098 70.3222C145.511 70.2869 144.283 69.3907 144.146 68.5371C143.581 64.931 143.794 59.7695 144.232 56.0606C144.783 51.4361 146.255 45.3779 148.094 41.9142C148.995 40.1581 150.958 40.0779 151.942 41.0013C156.133 44.9518 160.617 54.3424 163.873 59.0926C164.475 59.9873 165.513 59.4174 165.518 58.5122C165.64 50.1754 162.297 43.6038 161.252 35.8823C161.162 35.16 160.811 33.5788 161.636 33.4642ZM112.528 41.7357C118.368 37.2564 136.727 36.2905 142.561 39.3162C143.601 39.8694 143.158 41.4969 142.514 42.3601C141.207 44.139 138.529 43.5992 136.174 43.8199C129.465 44.4519 122.463 43.8729 116.37 45.9782C115.377 46.323 115.547 48.0939 117.551 48.401C119.73 48.7324 122.224 48.9152 124.754 49.1187L125.317 49.1643C125.598 49.1873 125.88 49.2108 126.162 49.2349L126.725 49.284L127.286 49.3353C133.269 49.8948 138.94 50.8872 140.61 54.5657C141.951 57.4811 141.6 63.7446 139.483 65.8995C134.758 70.6927 125.642 70.4233 121.709 69.6145C119.053 69.0752 112.556 66.8248 110.78 61.2099C110.413 59.1229 111.154 57.504 112.464 56.5247C115.961 53.9055 120.224 54.6139 124.89 55.2569C127.625 55.6329 131.966 57.3105 132.291 57.9965C132.906 59.2543 132.577 60.4724 127.234 61.0934C121.714 61.5997 118.842 56.5682 114.763 58.5817C114.014 58.9461 113.544 60.8278 113.866 61.4579C115.202 64.068 122.741 64.5939 125.815 64.1932C132.492 63.3333 136.241 60.77 136.724 58.7221C137.443 55.6859 132.754 54.7185 129.447 53.9705C126.7 53.3479 124.075 53.1953 121.462 53.0702L120.257 53.0128C117.646 52.8857 115.031 52.7181 112.305 52.0673C110.749 51.6957 110.035 50.7632 109.882 49.4042C109.534 46.4845 110.502 43.2787 112.528 41.7357ZM229.054 50.2008C229.091 48.8561 228.535 47.893 227.742 48.333C225.126 49.7685 221.845 53.676 220.243 55.8085C217.997 58.7988 216.187 62.0395 214.533 64.8039C217.512 65.1197 221.236 63.3336 224.098 61.0182C227.257 58.2882 228.968 54.543 229.054 50.2008ZM18.1491 46.9983C15.1081 48.1711 15.3426 49.5105 16.4155 51.0673C20.4057 56.7863 28.8781 61.6483 35.4574 63.9441C35.5706 57.6538 35.938 49.639 36.1964 44.3777C32.1747 44.3624 23.5327 44.9203 18.1491 46.9983ZM117.444 11.9573C118.972 11.8197 120.867 12.0495 121.935 13.0183C124.037 14.9166 123.867 18.3097 122.588 21.1582C120.468 25.8707 115.211 30.6409 108.211 32.2235C104.674 33.0256 101.42 32.3807 98.5119 31.6035C98.1144 31.9756 97.1352 34.5676 96.0135 34.5676C94.8184 34.5418 93.263 32.9152 92.9697 31.1759C92.8321 30.4326 92.8565 29.0497 93.2176 28.2343C90.9672 26.8337 90.1283 22.1303 91.7788 18.9885C94.1095 14.5822 98.3547 10.5123 104.733 8.97218C108.091 8.16679 116.716 7.74785 117.444 11.9573ZM114.557 15.787C110.535 16.4443 104.607 21.2518 101.346 26.6718C102.559 27.1786 107.131 27.7647 110.921 26.3531C117.688 23.8218 119.735 19.5942 119.053 17.0882C118.607 15.4502 116.746 15.4301 114.557 15.787ZM101.89 15.0012C100.356 15.7158 99.1061 16.5637 97.8971 17.6973C97.0673 18.4788 96.3283 19.5565 95.9276 20.3241C95.468 21.1582 95.2005 23.037 96.035 23.8944C98.1312 20.6824 101.78 16.8026 105.347 14.6018C104.341 14.2526 102.653 14.6477 101.89 15.0012Z" fill="white"/>
</svg>
